<svg xmlns="http://www.w3.org/2000/svg" width="260" height="260" viewBox="0 0 260 260" role="img" aria-labelledby="t d">
<title id="t">Asistente Cohacer</title><desc id="d">Robot amigable del asistente virtual Cohacer.</desc>
<defs><filter id="sh"><feDropShadow dx="0" dy="18" stdDeviation="14" flood-color="#000" flood-opacity=".25"/></filter><linearGradient id="body" x1="0" y1="0" x2="1" y2="1"><stop stop-color="#ffffff"/><stop offset="1" stop-color="#dbe4f6"/></linearGradient></defs>
<circle cx="130" cy="132" r="105" fill="#ffc629" opacity=".16"/>
<g filter="url(#sh)">
<rect x="60" y="57" width="140" height="100" rx="42" fill="url(#body)"/>
<rect x="82" y="82" width="96" height="52" rx="26" fill="#202070"/>
<circle cx="113" cy="108" r="7" fill="#fff"/><circle cx="147" cy="108" r="7" fill="#fff"/>
<path d="M112 124c12 10 25 10 37 0" stroke="#fff" stroke-width="5" stroke-linecap="round" fill="none"/>
<rect x="80" y="154" width="100" height="64" rx="32" fill="url(#body)"/>
<path d="M113 179h35" stroke="#ffc629" stroke-width="8" stroke-linecap="round"/>
<path d="M130 57V34" stroke="#fff" stroke-width="8" stroke-linecap="round"/><circle cx="130" cy="30" r="10" fill="#ffc629"/>
<circle cx="56" cy="111" r="18" fill="#fff"/><circle cx="204" cy="111" r="18" fill="#fff"/>
</g>
<path d="M101 205 85 221l16 8 17-17-17-7Z" fill="#ffc629"/><path d="M159 205l16 16-16 8-17-17 17-7Z" fill="#876b3f"/>
</svg>
