<svg xmlns="http://www.w3.org/2000/svg" width="220" height="64" viewBox="0 0 220 64" role="img" aria-labelledby="t d">
<title id="t">COHACER</title><desc id="d">Logo institucional de COHACER</desc>
<rect width="220" height="64" fill="none"/>
<g transform="translate(7 8)">
<path d="M24 3 7 13v21l17 10 17-10V13L24 3Z" fill="#ffffff"/>
<path d="M24 11 14 17l10 6 10-6-10-6Z" fill="#151d33"/>
<path d="M24 23v13l11-7V17l-11 6Z" fill="#ffc629"/>
<path d="M13 18v10l11 7V23l-11-5Z" fill="#202070"/>
<path d="m41 10-6-5-16 16 6 5L41 10Z" fill="#ffc629"/>
<path d="m32 31 12-12 5 5-12 12-5-5Z" fill="#876b3f"/>
</g>
<text x="62" y="30" font-family="Arial, sans-serif" font-size="24" font-weight="800" fill="#ffffff" letter-spacing=".6">COHACER</text>
<text x="64" y="47" font-family="Arial, sans-serif" font-size="9" font-weight="700" fill="#ffc629">Tu aprendizaje, tu futuro.</text>
</svg>
